<?xml version="1.0" encoding="UTF-8" standalone="no"?>
<svg
   version="1.1"
   width="315.5578"
   height="89.325066"
   viewBox="0 0 315.5578 89.325066"
   id="svg25"
   sodipodi:docname="Amara-logo.svg"
   inkscape:version="1.4 (86a8ad7, 2024-10-11)"
   xmlns:inkscape="http://www.inkscape.org/namespaces/inkscape"
   xmlns:sodipodi="http://sodipodi.sourceforge.net/DTD/sodipodi-0.dtd"
   xmlns:xlink="http://www.w3.org/1999/xlink"
   xmlns="http://www.w3.org/2000/svg"
   xmlns:svg="http://www.w3.org/2000/svg">
  <sodipodi:namedview
     id="namedview25"
     pagecolor="#ffffff"
     bordercolor="#000000"
     borderopacity="0.25"
     inkscape:showpageshadow="2"
     inkscape:pageopacity="0.0"
     inkscape:pagecheckerboard="0"
     inkscape:deskcolor="#d1d1d1"
     inkscape:zoom="2.0613333"
     inkscape:cx="154.75421"
     inkscape:cy="41.963131"
     inkscape:window-width="1920"
     inkscape:window-height="991"
     inkscape:window-x="-9"
     inkscape:window-y="-9"
     inkscape:window-maximized="1"
     inkscape:current-layer="svg25" />
  <defs
     id="defs5">
    <clipPath
       id="clip_0">
      <path
         transform="scale(0.24)"
         d="M 0,0 H 1562.5 V 1562.5 H 0 Z"
         clip-rule="evenodd"
         id="path1" />
    </clipPath>
    <clipPath
       id="clip_1">
      <path
         transform="scale(0.24)"
         d="M 0,0 H 1562.5 V 1562.5 H 0 Z"
         clip-rule="evenodd"
         id="path2" />
    </clipPath>
    <clipPath
       id="clip_2">
      <path
         transform="scale(0.24)"
         d="M 0,0 H 1562.5 V 1562.5 H 0 Z"
         clip-rule="evenodd"
         id="path3" />
    </clipPath>
    <path
       id="font_3_139"
       d="M 0.64100649,0.70599368 V 0 h -0.076004 V 0.68200686 C 0.53166708,0.66799929 0.50316366,0.64582827 0.4794922,0.6154938 0.4558309,0.5851695 0.43599955,0.5495046 0.41999818,0.50849917 0.4039968,0.46750389 0.3913269,0.4238383 0.38198854,0.37750245 0.3726603,0.3311666 0.36566163,0.28483073 0.36099244,0.23849488 0.3563334,0.19216919 0.35316978,0.14850362 0.35150147,0.10749817 0.34983317,0.06650289 0.34899903,0.03067017 0.34899903,0 h -0.009994 L 0.06900025,0.621994 0.04100037,0.68800356 V 0 H 0.03500366 V 0.70599368 H 0.11799622 L 0.34599305,0.17900086 c 0.004008,0.0460002 0.0100097,0.0935008 0.0180053,0.14250184 0.008006,0.0490011 0.0190074,0.0963338 0.0330048,0.14199829 0.0139974,0.0456645 0.0319926,0.0868276 0.0539856,0.12348939 0.0220032,0.0366719 0.0485026,0.0656738 0.0794983,0.0870056 0.0310058,0.0213318 0.0678456,0.0319977 0.1105194,0.0319977 z" />
    <clipPath
       id="clip_4">
      <path
         transform="scale(0.24)"
         d="m 509.8364,601.26016 h 71.875 v 50 h -71.875 z"
         clip-rule="evenodd"
         id="path4" />
    </clipPath>
    <clipPath
       id="clip_5">
      <path
         transform="scale(0.24)"
         d="M 0,0 H 1562.5 V 1562.5 H 0 Z"
         clip-rule="evenodd"
         id="path5" />
    </clipPath>
    <path
       id="font_3_254"
       d="M 0.5209961,0 0.40800477,0.2709961 C 0.36533103,0.2669983 0.33015953,0.2583313 0.30249024,0.24499512 0.27483116,0.23166912 0.25250245,0.21550496 0.23550415,0.19650269 0.21850586,0.17750041 0.20483907,0.15766399 0.19450379,0.13699341 0.1841685,0.11633301 0.17500305,0.09700012 0.16700745,0.07899475 0.15766907,0.05433655 0.14749654,0.03383891 0.13648987,0.01750183 0.12549336,0.00116475 0.10866293,-0.00666809 0.08599854,-0.0059967 c -0.0026652,6.6121e-4 -0.0051676,0.00132751 -0.0075073,0.0019989 -0.0023295,6.6121e-4 -0.0051575,0.00232951 -0.0084839,0.00500488 -0.02733358,0.01199341 -0.03833517,0.04099019 -0.03300476,0.08699036 0.0026652,0.02200317 0.0074971,0.0468343 0.01449584,0.07449341 0.0069987,0.0276693 0.01649984,0.0575053 0.02850342,0.0895081 0.0179952,0.0480042 0.03915914,0.0988363 0.06349182,0.15249635 0.0243327,0.0536703 0.049998,0.10666914 0.0769959,0.15899655 0.0270081,0.0523377 0.0531769,0.0998383 0.0785065,0.14250188 h 0.007004 L 0.6049957,0 H 0.5209961 M 0.40499879,0.27799989 0.2579956,0.6199951 C 0.22733562,0.56133016 0.19650269,0.49949647 0.16549683,0.43449403 0.13450115,0.36950175 0.1083374,0.30800376 0.08700562,0.25 0.07500204,0.21799724 0.06550089,0.18832906 0.0585022,0.16099549 0.0515035,0.13366191 0.04667155,0.10932922 0.04400635,0.08799744 0.04333496,0.06733704 0.04499817,0.04984029 0.04899597,0.0355072 0.05299378,0.02117411 0.06099447,0.01200358 0.07299805,0.00799561 c 0.0033366,-6.6122e-4 0.0058339,-0.00132752 0.0074921,-0.00199891 0.0016683,-6.6121e-4 0.0038401,-0.00165812 0.0065155,-0.00299072 0.01999918,-0.0013326 0.03499857,0.0056661 0.04499817,0.0209961 0.01,0.01532999 0.0189972,0.03432719 0.0269928,0.05699157 0.008006,0.01866659 0.0173391,0.03849793 0.0279999,0.05949402 0.010671,0.0210063 0.0248362,0.0411733 0.0424957,0.0605011 0.0176697,0.019338 0.0405019,0.0360057 0.0684967,0.0500031 0.028005,0.0140076 0.0636749,0.0230103 0.10700989,0.0270081 z" />
    <path
       id="font_3_19"
       d="m 0.31799317,0.3899994 c 0.034668,-0.007996 0.0626678,-0.0233307 0.0839996,-0.0460053 0.021342,-0.0226644 0.0391795,-0.0493317 0.0535126,-0.0800018 0.0143331,-0.03066 0.0281626,-0.0616557 0.0414886,-0.0929871 0.012675,-0.0286662 0.0256755,-0.0555013 0.0390015,-0.08050537 0.0133362,-0.02500407 0.0283356,-0.04500834 0.0449982,-0.06001282 0.0166728,-0.0149943 0.0360107,-0.02249145 0.0580139,-0.02249145 V 0 C 0.5870056,0 0.5458374,0.0069987 0.5155029,0.02099609 0.48516847,0.03500366 0.46233116,0.0535024 0.44699098,0.07649231 c -0.01533,0.02300008 -0.0263265,0.04816691 -0.0329895,0.07550049 -0.006663,0.0273336 -0.0118307,0.0546672 -0.0155029,0.0820007 -0.003662,0.0273336 -0.008998,0.0525004 -0.0160065,0.0755005 -0.006999,0.0230001 -0.0186666,0.0414988 -0.0350037,0.0554962 -0.0163269,0.0140076 -0.0404917,0.0210114 -0.0724945,0.0210114 -0.0506592,0 -0.0913239,0.023997 -0.12199402,0.071991 -0.017334,0.028005 -0.0303345,0.0623423 -0.0390015,0.1030121 V 0 H 0.03500366 v 0.70700076 h 0.17599488 c 0.0493368,0 0.0941722,-0.005336 0.13450623,-0.0160065 0.0403341,-0.0106608 0.0726674,-0.0274913 0.0970001,-0.0504914 0.0243327,-0.023 0.036499,-0.0535023 0.036499,-0.0915069 0,-0.032664 -0.007334,-0.0601654 -0.0220032,-0.0825043 C 0.44233195,0.444163 0.4228312,0.426829 0.39849855,0.41448976 0.37416587,0.40216065 0.34733073,0.3939972 0.31799317,0.3899994 M 0.3999939,0.548996 c 0,0.0380046 -0.009003,0.0680033 -0.0270081,0.0899963 -0.0179952,0.0220032 -0.0413259,0.0375061 -0.0699921,0.0465088 -0.0286662,0.009003 -0.0593313,0.013504 -0.0919952,0.013504 H 0.11399841 V 0.6369934 c 0,-0.0366618 0.004166,-0.0693257 0.012497,-0.0979919 0.008341,-0.0286662 0.0195109,-0.0540009 0.0335083,-0.076004 0.0139974,-0.0206604 0.0309957,-0.0374908 0.0509949,-0.0504913 0.0199992,-0.0130005 0.041331,-0.0195007 0.0639954,-0.0195007 h 0.007004 c 0.0320028,0.001994 0.059667,0.0153249 0.0829926,0.0399933 0.0233358,0.0246684 0.0350037,0.0633341 0.0350037,0.11599733 z" />
    <path
       id="font_6_61"
       d="M 0.5299988,0.31900025 H 0.18499756 V 0 H 0.08999634 V 0.69999697 H 0.18499756 V 0.40100099 H 0.5299988 V 0.69999697 H 0.625 V 0 H 0.5299988 Z" />
    <path
       id="font_6_54"
       d="M 0.00999451,0.0249939 0.28399659,0.69999697 H 0.3880005 L 0.65800479,0.0249939 0.57099917,-0.00999451 0.49299623,0.19000244 H 0.16900635 L 0.09100342,-0.00799561 0.00999451,0.0249939 m 0.18901062,0.24501038 h 0.2630005 L 0.33099366,0.6060028 Z" />
    <path
       id="font_6_74"
       d="M 0.503006,0.69999697 H 0.5950012 V 0.27000428 c 0,-0.0440063 -0.00617,-0.0835114 -0.0185089,-0.11851502 C 0.5641632,0.11649577 0.5464986,0.08683268 0.52349856,0.0625 0.5004985,0.03816732 0.47299705,0.01966858 0.44099427,0.00700378 0.40900169,-0.00566101 0.3733368,-0.01199341 0.33399964,-0.01199341 c -0.0813293,0 -0.14483135,0.02382914 -0.19050599,0.07148743 -0.04566446,0.04766846 -0.0684967,0.11650594 -0.0684967,0.20651246 v 0.43399049 h 0.09500122 v -0.4189911 c 0,-0.0673421 0.013499,-0.11918133 0.0404968,-0.15551759 0.0270081,-0.03632609 0.0681763,-0.05448913 0.12350464,-0.05448913 0.0566712,0 0.0990041,0.01783243 0.12699891,0.05349731 0.0280049,0.0356649 0.0420074,0.0878347 0.0420074,0.15650941 z" />
    <path
       id="font_6_73"
       d="M 0.00999451,0.69999697 H 0.53500369 V 0.6159973 H 0.32000733 V 0 H 0.2250061 V 0.6159973 H 0.00999451 Z" />
    <path
       id="font_6_58"
       d="M 0.08999634,0.69999697 H 0.5099945 V 0.6179962 H 0.18499756 V 0.40499879 H 0.46499635 V 0.32499696 H 0.18499756 V 0.08200073 H 0.5099945 V 0 H 0.08999634 Z" />
    <path
       id="font_6_3"
       d="M 0,0 Z" />
    <path
       id="font_6_56"
       d="m 0.14700318,0.35099793 c 0,-0.0420024 0.005498,-0.0801697 0.0164948,-0.11450196 0.0109965,-0.0343323 0.0263265,-0.0638326 0.04599,-0.088501 0.0196737,-0.0246684 0.0431773,-0.0436707 0.0705109,-0.05700684 0.0273336,-0.01332601 0.0573324,-0.01998901 0.0899963,-0.01998901 0.0326742,0 0.0610097,0.0038299 0.0850067,0.01148986 0.023997,0.0076701 0.0473277,0.01817322 0.0699921,0.0315094 l 0.029007,-0.07899475 C 0.52933248,0.02166748 0.50116476,0.01049805 0.46949769,0.00149536 0.4378306,-0.00749715 0.40099589,-0.01199341 0.35899354,-0.01199341 c -0.0460002,0 -0.0878347,0.0083313 -0.12550355,0.0249939 -0.0376587,0.0166626 -0.0701548,0.04049174 -0.0974884,0.07148743 -0.0273336,0.03100586 -0.0485026,0.06867473 -0.06350708,0.11300658 -0.01499431,0.0443421 -0.02249146,0.0941773 -0.02249146,0.14950563 0,0.0533346 0.0074972,0.1023356 0.02249146,0.14700317 0.01500448,0.0446676 0.03650411,0.0831655 0.0644989,0.1154938 0.028005,0.0323384 0.0618388,0.0575053 0.10150147,0.0755005 0.0396729,0.0180053 0.083842,0.027008 0.13250732,0.027008 0.0339966,0 0.0644938,-0.003169 0.0914917,-0.009506 0.0270081,-0.006337 0.0525106,-0.0151723 0.0765076,-0.0265045 l -0.029007,-0.0800018 c -0.0206604,0.01 -0.0418243,0.0180003 -0.0634918,0.024002 -0.0216675,0.006002 -0.04717,0.009003 -0.0765076,0.009003 -0.0319926,0 -0.0616557,-0.00617 -0.0889893,-0.0185089 -0.0273336,-0.0123291 -0.0510051,-0.0304921 -0.0710144,-0.0544891 -0.0199992,-0.023997 -0.035497,-0.0531616 -0.0464935,-0.0874939 -0.0109965,-0.0343323 -0.0164948,-0.0735016 -0.0164948,-0.11750794 z" />
    <path
       id="font_6_68"
       d="m 0.05000305,0.35099793 c 0,0.0513306 0.0074972,0.0989939 0.02249146,0.14299012 0.01500448,0.0440063 0.03667196,0.0821736 0.06500244,0.11450195 0.0283305,0.0323385 0.0628306,0.0576732 0.10350037,0.076004 0.0406698,0.0183411 0.0870056,0.0275116 0.13900757,0.0275116 0.0513306,0 0.0974935,-0.009501 0.13848879,-0.0285034 0.0410054,-0.0190022 0.0756734,-0.0448354 0.1040039,-0.0774994 0.0283305,-0.032664 0.0501607,-0.0708313 0.0654907,-0.11450194 0.0153402,-0.0436707 0.0230103,-0.090505 0.0230103,-0.14050293 0,-0.049998 -0.007502,-0.0970001 -0.0225068,-0.14100647 C 0.6734975,0.16599529 0.6516673,0.12749736 0.6230011,0.09449768 0.5943349,0.06149801 0.55966696,0.03549703 0.5189972,0.01649475 0.47832743,-0.00249736 0.43199668,-0.01199341 0.38000489,-0.01199341 c -0.0520019,0 -0.0983378,0.00949605 -0.13900757,0.02848816 C 0.20032756,0.03549703 0.16582744,0.06149801 0.13749695,0.09449768 0.10916647,0.12749736 0.08749899,0.16599529 0.07249451,0.20999146 0.0575002,0.2539978 0.05000305,0.30099998 0.05000305,0.35099793 m 0.09700013,0 c 0,-0.0360006 0.005163,-0.0709991 0.0154877,-0.10499573 0.0103353,-0.0339966 0.0255025,-0.0639954 0.0455017,-0.0899963 0.0200094,-0.026001 0.0445099,-0.0468343 0.0735016,-0.0625 0.0290018,-0.01566569 0.0618388,-0.02349853 0.0985107,-0.02349853 0.0386658,0 0.0724945,0.0071665 0.10148621,0.02149963 0.0290019,0.01433309 0.0533345,0.03399658 0.0729981,0.05899048 0.0196736,0.0250041 0.0345103,0.0546722 0.0445098,0.0890045 0.01,0.0343323 0.0149994,0.0714976 0.0149994,0.11149597 0,0.0360006 -0.005336,0.0706685 -0.0160064,0.10400391 -0.0106609,0.0333354 -0.0259908,0.0629985 -0.04599,0.0889893 -0.0199992,0.026001 -0.0444997,0.0468343 -0.0735016,0.0625 -0.0290019,0.0156759 -0.0618337,0.0235138 -0.0984955,0.0235138 -0.036672,0 -0.0695089,-0.007167 -0.0985107,-0.0214996 C 0.25250245,0.5941722 0.22800191,0.5745036 0.20799256,0.5494995 0.18799336,0.5244954 0.17282613,0.49499513 0.16249085,0.46099855 0.15216573,0.42700196 0.14700318,0.39033509 0.14700318,0.35099793 Z" />
    <path
       id="font_6_71"
       d="m 0.4980011,-0.01199341 -0.0870056,0.18998719 c -0.021993,0.0473328 -0.0496572,0.0809988 -0.0829926,0.10099792 -0.0333354,0.0200094 -0.076004,0.0300141 -0.12800599,0.0300141 H 0.18499756 V 0 H 0.08999634 v 0.69799807 c 0.03600056,0.003337 0.0698344,0.005834 0.10150146,0.007492 0.0316671,0.001668 0.0661672,0.002502 0.10350038,0.002502 0.0426636,0 0.0799967,-0.004501 0.11199951,-0.0135041 0.0320028,-0.008992 0.05867,-0.0218251 0.0800018,-0.0384979 0.0213318,-0.0166626 0.0374959,-0.0363261 0.0484925,-0.0589905 0.0110066,-0.0226643 0.01651,-0.0476633 0.01651,-0.0749969 0,-0.0486654 -0.0145009,-0.0878347 -0.0435028,-0.11750795 -0.0290019,-0.0296631 -0.0708364,-0.051829 -0.12550357,-0.0664978 0.0133362,-0.006002 0.0256704,-0.0128377 0.0370026,-0.0205078 0.0113322,-0.00766 0.0219981,-0.0169932 0.0319977,-0.0279999 C 0.46199546,0.27849327 0.47182719,0.26533 0.4814911,0.25 0.49116517,0.23467 0.501002,0.21600342 0.5110016,0.19400025 L 0.5870056,0.02999878 0.4980011,-0.01199341 M 0.29499818,0.628006 c -0.0226644,0 -0.0429993,-3.357e-4 -0.0610046,-0.001007 -0.0179952,-6.612e-4 -0.0343272,-0.001663 -0.048996,-0.003006 V 0.38900758 h 0.11000062 c 0.0480042,0 0.0870056,0.0106659 0.11700439,0.0319977 0.0299988,0.0213318 0.0449982,0.0519968 0.0449982,0.0919952 0,0.0333354 -0.0140025,0.0608368 -0.0420074,0.0825043 C 0.3869985,0.61717227 0.34700013,0.628006 0.29499818,0.628006 Z" />
  </defs>
  <g
     clip-path="url(#clip_0)"
     id="g6"
     transform="translate(-26.412465,-145.57946)" />
  <g
     clip-path="url(#clip_2)"
     id="g8"
     transform="matrix(1.1264135,0,0,0.98396826,-50.51642,-141.81353)">
    <use
       data-text="m"
       xlink:href="#font_3_139"
       transform="matrix(81.53611,0,0,-81.53611,103.52574,208.13657)"
       fill="#292727"
       id="use7" />
  </g>
  <g
     clip-path="url(#clip_4)"
     id="g9"
     transform="matrix(1.1264135,0,0,0.98396826,-50.51642,-141.81353)">
    <path
       transform="matrix(0,-0.06254484,0.06254484,0,122.36073,156.28087)"
       d="m 196.7,266.8 h 0.39999 C 179.9,274.19999 161,278.3 141,278.3 63.5,278.3 0.5,216 0.5,139.4 0.5,62.7 63.5,0.5 141,0.5 c 23.1,0 44.8,5.5 64,15.3 -2.8,-0.2 -5.5,-0.3 -8.3,-0.3 C 127.8,15.5 71.899997,71.8 71.899997,141.2 71.9,210.5 127.9,266.8 196.7,266.8 Z"
       fill="#963c30"
       fill-rule="evenodd"
       id="path8" />
    <path
       transform="matrix(0,-0.06254484,0.06254484,0,122.36073,156.28087)"
       d="M 205.3,15.3 C 185.2,5.1 163.6,0 141,0 63.3,0 0,62.5 0,139.4 c 0,76.89999 63.3,139.4 141,139.4 19.6,0 38.5,-3.9 56.3,-11.60001 0.2,-0.1 0.3,-0.29999 0.3,-0.6 0,-0.20002 -0.3,-0.4 -0.5,-0.4 h -0.39999 c -68.60001,0 -124.3,-56.10001 -124.3,-125.10001 0,-69.000001 55.8,-125.200001 124.3,-125.200001 2.7,0 5.5,0.1 8.30001,0.299999 0.19999,0 0.39999,-0.1 0.5,-0.4 C 205.6,15.6 205.5,15.4 205.3,15.3 Z M 196.7,15 C 127.6,15 71.4,71.6 71.4,141.1 c 0,68.9 55.1,125 123.30001,126.1 -17,7 -35.10001,10.5 -53.69999,10.5 C 63.80002,277.7 1.0000153,215.6 1.0000153,139.30002 1,63.1 63.8,1 141,1 c 21.6,0 42.4,4.8 61.7,14.1 -2,-0.1 -4,-0.1 -6,-0.1 z"
       fill="#963c30"
       id="path9" />
  </g>
  <g
     clip-path="url(#clip_5)"
     id="g25"
     transform="matrix(1.1264135,0,0,0.98396826,-50.51642,-141.81353)">
    <use
       data-text="A"
       xlink:href="#font_3_254"
       transform="matrix(81.53611,0,0,-81.53611,168.24523,208.13657)"
       fill="#292727"
       id="use9" />
    <use
       data-text="A"
       xlink:href="#font_3_254"
       transform="matrix(81.546489,0,0,-81.546489,41.936109,207.93778)"
       fill="#292727"
       id="use10" />
    <use
       data-text="R"
       xlink:href="#font_3_19"
       transform="matrix(81.546489,0,0,-81.546489,220.69458,207.93778)"
       fill="#292727"
       id="use11" />
    <use
       data-text="A"
       xlink:href="#font_3_254"
       transform="matrix(81.546489,0,0,-81.546489,275.6557,207.93778)"
       fill="#292727"
       id="use12" />
    <use
       data-text="H"
       xlink:href="#font_6_61"
       transform="matrix(7.99998,0,0,-7.99998,125.49869,234.80858)"
       fill="#963c30"
       id="use13" />
    <use
       data-text="A"
       xlink:href="#font_6_54"
       transform="matrix(7.99998,0,0,-7.99998,136.3067,234.80858)"
       fill="#963c30"
       id="use14" />
    <use
       data-text="U"
       xlink:href="#font_6_74"
       transform="matrix(7.99998,0,0,-7.99998,146.73871,234.80858)"
       fill="#963c30"
       id="use15" />
    <use
       data-text="T"
       xlink:href="#font_6_73"
       transform="matrix(7.99998,0,0,-7.99998,157.18672,234.80858)"
       fill="#963c30"
       id="use16" />
    <use
       data-text="E"
       xlink:href="#font_6_58"
       transform="matrix(7.99998,0,0,-7.99998,166.63472,234.80858)"
       fill="#963c30"
       id="use17" />
    <use
       data-text=" "
       xlink:href="#font_6_3"
       transform="matrix(7.99998,0,0,-7.99998,176.16274,234.80858)"
       fill="#963c30"
       id="use18" />
    <use
       data-text="C"
       xlink:href="#font_6_56"
       transform="matrix(7.99998,0,0,-7.99998,183.65073,234.80858)"
       fill="#963c30"
       id="use19" />
    <use
       data-text="O"
       xlink:href="#font_6_68"
       transform="matrix(7.99998,0,0,-7.99998,193.49076,234.80858)"
       fill="#963c30"
       id="use20" />
    <use
       data-text="U"
       xlink:href="#font_6_74"
       transform="matrix(7.99998,0,0,-7.99998,204.66677,234.80858)"
       fill="#963c30"
       id="use21" />
    <use
       data-text="T"
       xlink:href="#font_6_73"
       transform="matrix(7.99998,0,0,-7.99998,215.11478,234.80858)"
       fill="#963c30"
       id="use22" />
    <use
       data-text="U"
       xlink:href="#font_6_74"
       transform="matrix(7.99998,0,0,-7.99998,224.56278,234.80858)"
       fill="#963c30"
       id="use23" />
    <use
       data-text="R"
       xlink:href="#font_6_71"
       transform="matrix(7.99998,0,0,-7.99998,235.0108,234.80858)"
       fill="#963c30"
       id="use24" />
    <use
       data-text="E"
       xlink:href="#font_6_58"
       transform="matrix(7.99998,0,0,-7.99998,245.03482,234.80858)"
       fill="#963c30"
       id="use25" />
  </g>
  <path
     d="M 87.315245,11.98871 H 106.96062 V 0 H 87.315245 Z"
     fill-opacity="0"
     id="path25"
     style="stroke-width:1.05278" />
</svg>
