<?xml version="1.0" encoding="UTF-8" standalone="no"?>
<svg
   version="1.1"
   width="375"
   height="375"
   viewBox="0 0 375 375"
   id="svg25"
   sodipodi:docname="Amara-logo-with-bg.svg"
   inkscape:version="1.4 (86a8ad7, 2024-10-11)"
   xmlns:inkscape="http://www.inkscape.org/namespaces/inkscape"
   xmlns:sodipodi="http://sodipodi.sourceforge.net/DTD/sodipodi-0.dtd"
   xmlns:xlink="http://www.w3.org/1999/xlink"
   xmlns="http://www.w3.org/2000/svg"
   xmlns:svg="http://www.w3.org/2000/svg">
  <sodipodi:namedview
     id="namedview25"
     pagecolor="#ffffff"
     bordercolor="#000000"
     borderopacity="0.25"
     inkscape:showpageshadow="2"
     inkscape:pageopacity="0.0"
     inkscape:pagecheckerboard="0"
     inkscape:deskcolor="#d1d1d1"
     inkscape:zoom="2.0613333"
     inkscape:cx="187.25744"
     inkscape:cy="187.5"
     inkscape:window-width="1920"
     inkscape:window-height="991"
     inkscape:window-x="-9"
     inkscape:window-y="-9"
     inkscape:window-maximized="1"
     inkscape:current-layer="svg25" />
  <defs
     id="defs5">
    <clipPath
       id="clip_0">
      <path
         transform="matrix(.24,0,0,.24,0,0)"
         d="M0 0H1562.5V1562.5H0Z"
         clip-rule="evenodd"
         id="path1" />
    </clipPath>
    <clipPath
       id="clip_1">
      <path
         transform="matrix(.24,0,0,.24,0,0)"
         d="M0 0H1562.5V1562.5H0Z"
         clip-rule="evenodd"
         id="path2" />
    </clipPath>
    <clipPath
       id="clip_2">
      <path
         transform="matrix(.24,0,0,.24,0,0)"
         d="M0 0H1562.5V1562.5H0Z"
         clip-rule="evenodd"
         id="path3" />
    </clipPath>
    <path
       id="font_3_139"
       d="M.64100649 .70599368V0H.56500247V.68200686C.53166708 .66799929 .50316366 .64582827 .4794922 .6154938 .4558309 .5851695 .43599955 .5495046 .41999818 .50849917 .4039968 .46750389 .3913269 .4238383 .38198854 .37750245 .3726603 .3311666 .36566163 .28483073 .36099244 .23849488 .3563334 .19216919 .35316978 .14850362 .35150147 .10749817 .34983317 .06650289 .34899903 .030670166 .34899903 0H.33900453L.069000247 .621994 .041000368 .68800356V0H.035003663V.70599368H.117996219L.34599305 .17900086C.350001 .22500102 .3560028 .27250163 .3639984 .3215027 .37200419 .37050376 .38300578 .41783653 .39700318 .46350099 .41100059 .50916549 .42899577 .55032858 .45098878 .58699038 .47299195 .6236623 .49949137 .6526642 .53048709 .673996 .5614929 .69532778 .5983327 .70599368 .64100649 .70599368Z" />
    <clipPath
       id="clip_4">
      <path
         transform="matrix(.24,0,0,.24,0,0)"
         d="M509.8364 601.26016H581.7114V651.26016H509.8364Z"
         clip-rule="evenodd"
         id="path4" />
    </clipPath>
    <clipPath
       id="clip_5">
      <path
         transform="matrix(.24,0,0,.24,0,0)"
         d="M0 0H1562.5V1562.5H0Z"
         clip-rule="evenodd"
         id="path5" />
    </clipPath>
    <path
       id="font_3_254"
       d="M.5209961 0 .40800477 .2709961C.36533103 .2669983 .33015953 .2583313 .30249024 .24499512 .27483116 .23166912 .25250245 .21550496 .23550415 .19650269 .21850586 .17750041 .20483907 .15766399 .19450379 .13699341 .1841685 .11633301 .17500305 .09700012 .16700745 .07899475 .15766907 .054336549 .14749654 .03383891 .13648987 .017501831 .12549336 .0011647543 .108662929-.006668091 .085998538-.005996704 .083333339-.0053354899 .080830898-.0046691896 .07849121-.0039978029 .076161708-.0033365887 .07333374-.0016682943 .070007327 .0010070801 .042673749 .013000488 .03167216 .041997274 .037002565 .08799744 .039667768 .11000061 .044499715 .13483174 .051498414 .16249085 .058497114 .19016011 .06799825 .21999614 .08000183 .2519989 .09799703 .30000306 .11916097 .35083518 .14349365 .40449525 .16782634 .4581655 .19349163 .51116439 .2204895 .5634918 .24749756 .61582949 .27366639 .6633301 .29899598 .70599368H.30599977L.6049957 0H.5209961M.40499879 .27799989 .2579956 .6199951C.22733562 .56133016 .19650269 .49949647 .16549683 .43449403 .13450115 .36950175 .1083374 .30800376 .087005618 .25 .07500204 .21799724 .06550089 .18832906 .058502199 .16099549 .051503499 .13366191 .04667155 .10932922 .044006349 .08799744 .04333496 .067337039 .04499817 .04984029 .04899597 .035507204 .052993776 .021174113 .060994466 .012003581 .07299805 .0079956059 .07633463 .007334391 .07883199 .006668091 .08049011 .005996704 .08215841 .0053354899 .08433024 .0043385827 .087005618 .0030059815 .1070048 .0016733805 .12200419 .008672078 .13200379 .024002076 .14200337 .039332075 .15100098 .058329267 .15899658 .08099365 .16700237 .09966024 .17633565 .11949158 .18699646 .14048767 .19766744 .16149394 .21183269 .18166097 .22949219 .20098877 .24716187 .22032674 .2699941 .23699443 .2979889 .25099183 .32599388 .2649994 .36166383 .27400209 .40499879 .27799989Z" />
    <path
       id="font_3_19"
       d="M.31799317 .3899994C.35266114 .38200379 .380661 .3666687 .4019928 .34399415 .42333476 .32132975 .44117228 .29466249 .45550538 .2639923 .46983848 .23333232 .483668 .20233663 .49699403 .17100525 .509669 .14233907 .5226695 .115503948 .5359955 .09049988 .54933169 .06549581 .56433108 .045491537 .58099368 .03048706 .59766647 .015492757 .6170044 .0079956059 .63900759 .0079956059V0C.5870056 0 .5458374 .0069986979 .5155029 .020996094 .48516847 .035003663 .46233116 .0535024 .44699098 .07649231 .43166099 .09949239 .42066447 .12465922 .41400147 .1519928 .40733848 .17932637 .4021708 .20665996 .39849855 .23399353 .39483644 .26132713 .38950096 .28649394 .38249208 .30949403 .37549339 .3324941 .36382548 .35099284 .3474884 .36499024 .3311615 .3789978 .30699668 .3860016 .2749939 .3860016 .22433472 .3860016 .18367005 .40999858 .15299988 .45799256 .1356659 .48599754 .122665408 .5203349 .11399841 .56100466V0H.035003663V.70700076H.21099854C.2603353 .70700076 .30517069 .7016652 .34550477 .69099429 .38583885 .68033346 .4181722 .663503 .44250489 .6405029 .46683757 .61750289 .4790039 .58700057 .4790039 .548996 .4790039 .516332 .47166953 .48883058 .45700074 .4664917 .44233195 .444163 .4228312 .426829 .39849855 .41448976 .37416587 .40216065 .34733073 .3939972 .31799317 .3899994M.3999939 .548996C.3999939 .58700057 .3909912 .6169993 .37298585 .6389923 .35499064 .6609955 .33165995 .6764984 .30299378 .6855011 .2743276 .6945038 .24366252 .6990051 .21099854 .6990051H.11399841V.6369934C.11399841 .6003316 .11816406 .56766769 .12649536 .53900149 .13483684 .51033529 .14600627 .4850006 .16000366 .46299745 .17400106 .44233705 .19099935 .4255066 .21099854 .4125061 .23099773 .39950563 .2523295 .39300538 .2749939 .39300538H.28199769C.31400047 .39499919 .34166465 .4083303 .36499024 .43299867 .38832603 .45766703 .3999939 .4963328 .3999939 .548996Z" />
    <path
       id="font_6_61"
       d="M.5299988 .31900025H.18499756V0H.08999634V.69999697H.18499756V.40100099H.5299988V.69999697H.625V0H.5299988V.31900025Z" />
    <path
       id="font_6_54"
       d="M.009994507 .024993897 .28399659 .69999697H.3880005L.65800479 .024993897 .57099917-.009994507 .49299623 .19000244H.16900635L.09100342-.0079956059 .009994507 .024993897M.19900513 .27000428H.46200563L.33099366 .6060028 .19900513 .27000428Z" />
    <path
       id="font_6_74"
       d="M.503006 .69999697H.5950012V.27000428C.5950012 .22599793 .5888316 .18649292 .5764923 .15148926 .5641632 .116495769 .5464986 .08683268 .52349856 .0625 .5004985 .038167318 .47299705 .01966858 .44099427 .007003784 .40900169-.0056610109 .3733368-.011993408 .33399964-.011993408 .2526703-.011993408 .18916829 .011835734 .14349365 .05949402 .097829189 .107162479 .07499695 .17599996 .07499695 .26600648V.69999697H.16999817V.28100587C.16999817 .21366374 .18349712 .16182454 .210495 .12548828 .23750305 .08916219 .27867127 .070999149 .33399964 .070999149 .39067079 .070999149 .43300376 .08883158 .46099855 .12449646 .4890035 .16016133 .503006 .21233113 .503006 .28100587V.69999697Z" />
    <path
       id="font_6_73"
       d="M.009994507 .69999697H.53500369V.6159973H.32000733V0H.2250061V.6159973H.009994507V.69999697Z" />
    <path
       id="font_6_58"
       d="M.08999634 .69999697H.5099945V.6179962H.18499756V.40499879H.46499635V.32499696H.18499756V.08200073H.5099945V0H.08999634V.69999697Z" />
    <path
       id="font_6_3"
       d="M0 0Z" />
    <path
       id="font_6_56"
       d="M.14700318 .35099793C.14700318 .30899558 .15250142 .27082826 .16349793 .23649597 .17449443 .2021637 .18982442 .17266338 .20948792 .147995 .22916158 .12332662 .2526652 .10432434 .27999879 .09098816 .30733238 .07766215 .33733116 .070999149 .36999513 .070999149 .40266929 .070999149 .43100486 .0748291 .45500184 .08248901 .4789988 .090159099 .5023295 .10066223 .5249939 .11399841L.55400088 .035003663C.52933248 .02166748 .50116476 .010498047 .46949769 .0014953613 .4378306-.007497152 .40099589-.011993408 .35899354-.011993408 .31299339-.011993408 .27115885-.0036621094 .23348999 .013000488 .1958313 .029663086 .16333516 .05349223 .13600159 .084487918 .10866801 .115493778 .087498988 .15316265 .07249451 .1974945 .057500204 .24183655 .05000305 .29167176 .05000305 .34700013 .05000305 .4003347 .057500204 .44933573 .07249451 .4940033 .087498988 .53867086 .10899862 .57716879 .13699341 .6094971 .16499837 .6418355 .1988322 .6670024 .23849488 .68499758 .27816773 .7030029 .32233683 .7120056 .3710022 .7120056 .40499879 .7120056 .435496 .70883688 .4624939 .7024994 .48950196 .6961619 .51500448 .6873271 .53900149 .6759949L.5099945 .59599307C.4893341 .6059926 .46817018 .61399337 .4465027 .6199951 .4248352 .6259969 .39933268 .6289978 .36999513 .6289978 .33800254 .6289978 .30833946 .6228282 .28100587 .6104889 .25367228 .5981598 .23000081 .57999679 .20999146 .55599978 .18999227 .53200277 .17449443 .50283816 .16349793 .46850587 .15250142 .43417359 .14700318 .39500428 .14700318 .35099793Z" />
    <path
       id="font_6_68"
       d="M.05000305 .35099793C.05000305 .4023285 .057500204 .44999186 .07249451 .49398805 .087498988 .5379944 .109166469 .5761617 .13749695 .60849 .16582744 .64082846 .20032756 .66616317 .24099732 .684494 .28166709 .7028351 .32800294 .7120056 .38000489 .7120056 .43133546 .7120056 .47749839 .70250448 .51849368 .6835022 .5594991 .66449996 .59416708 .6386668 .62249758 .6060028 .65082809 .5733388 .67265829 .5351715 .6879883 .49150086 .70332846 .4478302 .71099856 .40099589 .71099856 .35099793 .71099856 .30099998 .7034963 .2539978 .6884918 .20999146 .6734975 .16599529 .6516673 .12749736 .6230011 .09449768 .5943349 .061498006 .55966696 .03549703 .5189972 .016494751 .47832743-.0024973553 .43199668-.011993408 .38000489-.011993408 .32800294-.011993408 .28166709-.0024973553 .24099732 .016494751 .20032756 .03549703 .16582744 .061498006 .13749695 .09449768 .109166469 .12749736 .087498988 .16599529 .07249451 .20999146 .057500204 .2539978 .05000305 .30099998 .05000305 .35099793M.14700318 .35099793C.14700318 .31499736 .15216573 .27999879 .16249085 .2460022 .17282613 .21200562 .18799336 .18200684 .20799256 .15600586 .22800191 .13000489 .25250245 .10917155 .28149415 .09350586 .310496 .07784017 .34333293 .070007327 .38000489 .070007327 .41867066 .070007327 .4524994 .07717387 .4814911 .09150696 .510493 .10584005 .5348256 .12550354 .55448916 .15049744 .5741628 .17550151 .58899948 .20516968 .598999 .23950196 .6089986 .27383424 .6139984 .31099955 .6139984 .35099793 .6139984 .3869985 .6086629 .42166648 .59799197 .45500184 .5873311 .4883372 .57200118 .5180003 .55200198 .5439911 .53200277 .56999209 .50750228 .5908254 .47850038 .6064911 .4494985 .62216696 .41666667 .6300049 .38000489 .6300049 .34333293 .6300049 .310496 .6228383 .28149415 .60850527 .25250245 .5941722 .22800191 .5745036 .20799256 .5494995 .18799336 .5244954 .17282613 .49499513 .16249085 .46099855 .15216573 .42700196 .14700318 .39033509 .14700318 .35099793Z" />
    <path
       id="font_6_71"
       d="M.4980011-.011993408 .41099549 .17799378C.38900248 .22532654 .3613383 .25899253 .32800294 .2789917 .29466758 .29900108 .2519989 .30900575 .19999695 .30900575H.18499756V0H.08999634V.69799807C.1259969 .70133468 .15983074 .703832 .1914978 .7054901 .22316487 .7071584 .257665 .70799258 .29499818 .70799258 .33766175 .70799258 .3749949 .7034912 .40699769 .6944885 .43900047 .68549606 .46566773 .6726634 .4869995 .6559906 .5083313 .639328 .5244954 .6196645 .53549197 .5970001 .5464986 .57433578 .55200198 .54933676 .55200198 .5220032 .55200198 .4733378 .53750106 .4341685 .50849917 .40449525 .47949729 .37483216 .43766276 .35266624 .3829956 .33799745 .3963318 .33199565 .40866599 .3251597 .41999818 .31748963 .43133036 .3098297 .44199626 .30049644 .45199586 .28948976 .46199546 .27849327 .47182719 .26533 .4814911 .25 .49116517 .23467 .501002 .21600342 .5110016 .19400025L.5870056 .02999878 .4980011-.011993408M.29499818 .628006C.27233378 .628006 .2519989 .6276703 .23399353 .6269989 .21599834 .6263377 .19966634 .6253357 .18499756 .6239929V.38900758H.29499818C.34300233 .38900758 .38200379 .39967347 .41200257 .42100526 .44200135 .44233705 .45700074 .4730021 .45700074 .5130005 .45700074 .5463359 .44299827 .5738373 .4149933 .59550479 .3869985 .61717227 .34700013 .628006 .29499818 .628006Z" />
  </defs>
  <g
     clip-path="url(#clip_0)"
     id="g6">
    <path
       transform="matrix(.75,0,0,.75,0,0)"
       d="M0 0H500V500H0Z"
       fill="#ffffff"
       id="path6" />
  </g>
  <g
     clip-path="url(#clip_1)"
     id="g7"
     transform="matrix(1.0025873,0,0,0.99870635,-0.97024598,-2.1484585e-6)">
    <path
       transform="scale(0.75)"
       d="M 0,0 H 500 V 500 H 0 Z"
       fill="#e5cec4"
       id="path7" />
  </g>
  <g
     clip-path="url(#clip_2)"
     id="g8">
    <use
       data-text="m"
       xlink:href="#font_3_139"
       transform="matrix(81.53611,0,0,-81.53611,103.525737,208.13657)"
       fill="#292727"
       id="use7" />
  </g>
  <g
     clip-path="url(#clip_4)"
     id="g9">
    <path
       transform="matrix(0,-.06254484,.06254484,0,122.36073,156.28087)"
       d="M196.7 266.8H197.09999C179.9 274.19999 161 278.3 141 278.3 63.5 278.3 .5 216 .5 139.4 .5 62.7 63.5 .5 141 .5 164.1 .5 185.8 6 205 15.8 202.2 15.6 199.5 15.5 196.7 15.5 127.799999 15.5 71.899997 71.8 71.899997 141.2 71.9 210.5 127.9 266.8 196.7 266.8Z"
       fill="#963c30"
       fill-rule="evenodd"
       id="path8" />
    <path
       transform="matrix(0,-.06254484,.06254484,0,122.36073,156.28087)"
       d="M205.3 15.3C185.2 5.1 163.6 0 141 0 63.3 0 0 62.5 0 139.4 0 216.29999 63.3 278.8 141 278.8 160.6 278.8 179.5 274.9 197.3 267.19999 197.5 267.09999 197.6 266.9 197.6 266.59999 197.6 266.39997 197.3 266.19999 197.1 266.19999H196.70001C128.1 266.19999 72.40001 210.09998 72.40001 141.09998 72.40001 72.099979 128.20001 15.899979 196.70001 15.899979 199.40001 15.899979 202.20001 15.999979 205.00002 16.199978 205.20001 16.199978 205.40001 16.099978 205.50002 15.799978 205.6 15.6 205.5 15.4 205.3 15.3ZM196.7 15C127.6 15 71.4 71.6 71.4 141.1 71.4 210 126.5 266.1 194.70001 267.2 177.70001 274.2 159.6 277.7 141.00002 277.7 63.80002 277.7 1.0000153 215.6 1.0000153 139.30002 1 63.1 63.8 1 141 1 162.6 1 183.4 5.8 202.7 15.1 200.7 15 198.7 15 196.7 15Z"
       fill="#963c30"
       id="path9" />
  </g>
  <g
     clip-path="url(#clip_5)"
     id="g25">
    <use
       data-text="A"
       xlink:href="#font_3_254"
       transform="matrix(81.53611,0,0,-81.53611,168.24523,208.13657)"
       fill="#292727"
       id="use9" />
    <use
       data-text="A"
       xlink:href="#font_3_254"
       transform="matrix(81.546489,0,0,-81.546489,41.936109,207.93778)"
       fill="#292727"
       id="use10" />
    <use
       data-text="R"
       xlink:href="#font_3_19"
       transform="matrix(81.546489,0,0,-81.546489,220.69458,207.93778)"
       fill="#292727"
       id="use11" />
    <use
       data-text="A"
       xlink:href="#font_3_254"
       transform="matrix(81.546489,0,0,-81.546489,275.6557,207.93778)"
       fill="#292727"
       id="use12" />
    <use
       data-text="H"
       xlink:href="#font_6_61"
       transform="matrix(7.99998,0,0,-7.99998,125.49869,234.80858)"
       fill="#963c30"
       id="use13" />
    <use
       data-text="A"
       xlink:href="#font_6_54"
       transform="matrix(7.99998,0,0,-7.99998,136.3067,234.80858)"
       fill="#963c30"
       id="use14" />
    <use
       data-text="U"
       xlink:href="#font_6_74"
       transform="matrix(7.99998,0,0,-7.99998,146.73871,234.80858)"
       fill="#963c30"
       id="use15" />
    <use
       data-text="T"
       xlink:href="#font_6_73"
       transform="matrix(7.99998,0,0,-7.99998,157.18672,234.80858)"
       fill="#963c30"
       id="use16" />
    <use
       data-text="E"
       xlink:href="#font_6_58"
       transform="matrix(7.99998,0,0,-7.99998,166.63472,234.80858)"
       fill="#963c30"
       id="use17" />
    <use
       data-text=" "
       xlink:href="#font_6_3"
       transform="matrix(7.99998,0,0,-7.99998,176.16274,234.80858)"
       fill="#963c30"
       id="use18" />
    <use
       data-text="C"
       xlink:href="#font_6_56"
       transform="matrix(7.99998,0,0,-7.99998,183.65073,234.80858)"
       fill="#963c30"
       id="use19" />
    <use
       data-text="O"
       xlink:href="#font_6_68"
       transform="matrix(7.99998,0,0,-7.99998,193.49076,234.80858)"
       fill="#963c30"
       id="use20" />
    <use
       data-text="U"
       xlink:href="#font_6_74"
       transform="matrix(7.99998,0,0,-7.99998,204.66677,234.80858)"
       fill="#963c30"
       id="use21" />
    <use
       data-text="T"
       xlink:href="#font_6_73"
       transform="matrix(7.99998,0,0,-7.99998,215.11478,234.80858)"
       fill="#963c30"
       id="use22" />
    <use
       data-text="U"
       xlink:href="#font_6_74"
       transform="matrix(7.99998,0,0,-7.99998,224.56278,234.80858)"
       fill="#963c30"
       id="use23" />
    <use
       data-text="R"
       xlink:href="#font_6_71"
       transform="matrix(7.99998,0,0,-7.99998,235.0108,234.80858)"
       fill="#963c30"
       id="use24" />
    <use
       data-text="E"
       xlink:href="#font_6_58"
       transform="matrix(7.99998,0,0,-7.99998,245.03482,234.80858)"
       fill="#963c30"
       id="use25" />
  </g>
  <path
     transform="matrix(1,0,0,-1,0,383.03999)"
     d="M122.36329 226.73186H139.80393V238.9159H122.36329Z"
     fill-opacity="0"
     id="path25" />
</svg>
